<svg xmlns="http://www.w3.org/2000/svg" viewBox="0 0 128 128">
  <path fill="#A4C439" d="M21.012 91.125c-5.538.003-10.038-4.503-10.039-10.04l-.002-30.739c-.002-5.532 4.497-10.037 10.028-10.038 2.689-.002 5.207 1.041 7.105 2.937s2.942 4.418 2.944 7.099l-.003 30.74c.007 2.679-1.034 5.199-2.929 7.094-1.892 1.891-4.401 2.935-7.104 2.947M21.004 43.005c-4.053-.002-7.338 3.291-7.339 7.341l.005 30.736c.001 4.064 3.292 7.344 7.341 7.348 4.057-.004 7.343-3.284 7.339-7.348l.001-30.741c-.002-4.049-3.291-7.339-7.347-7.336m59.192-27.602l5.123-9.355c.273-.5.063-1.133-.475-1.405-.535-.271-1.186-.062-1.461.435l-5.175 9.453c-3.882-1.698-8.244-2.65-12.859-2.65-4.614 0-8.974.953-12.858 2.65l-5.175-9.453c-.274-.497-.924-.706-1.461-.435-.539.272-.75.905-.475 1.405l5.121 9.355c-9.902 5.041-16.648 14.756-16.648 25.926 0 .717.065 1.424.148 2.12h63.204c.082-.696.146-1.403.146-2.12 0-11.17-6.745-20.884-16.645-25.926m-31.256 13.914c-1.521-.003-2.763-1.241-2.763-2.771 0-1.523 1.24-2.774 2.766-2.774 1.533-.001 2.773 1.251 2.775 2.774-.001 1.528-1.242 2.77-2.778 2.771m30.107-.006c-1.528.002-2.772-1.237-2.772-2.771 0-1.523 1.242-2.774 2.773-2.774 1.521.002 2.768 1.253 2.767 2.774.001 1.533-1.242 2.771-2.768 2.771m-47.854 14.615h67.506c.046-.328.079-.658.079-.992 0-4.005-3.245-7.251-7.25-7.251h-53.163c-4.004 0-7.251 3.245-7.251 7.251-.001.334.033.664.079.992m52.617 66.124c-5.538-.001-10.039-4.503-10.039-10.038l-.002-30.738c-.002-5.533 4.497-10.037 10.027-10.038 2.689-.003 5.207 1.04 7.106 2.937 1.897 1.894 2.942 4.417 2.943 7.098l-.002 30.739c.006 2.679-1.036 5.199-2.93 7.094-1.893 1.891-4.401 2.936-7.103 2.946m-.011-48.118c-4.053-.002-7.337 3.291-7.337 7.342l.004 30.736c0 4.064 3.291 7.344 7.34 7.348 4.056-.004 7.343-3.284 7.338-7.348l.002-30.739c-.002-4.05-3.291-7.34-7.347-7.339m-42.047 48.13c-5.375.454-10.117-3.53-10.571-8.906-.032-.374-.048-.75-.048-1.127l-.002-30.738c-.002-5.533 4.497-10.037 10.027-10.038 2.689-.002 5.207 1.041 7.106 2.937s2.942 4.417 2.944 7.098l-.003 30.739c.001 2.679-1.036 5.199-2.93 7.094-1.893 1.891-4.401 2.936-7.103 2.946-.81.017-1.613-.029-2.42-.105m2.431-48.124c-4.053-.002-7.337 3.291-7.337 7.342l.004 30.736c0 4.064 3.291 7.344 7.34 7.347 4.056-.003 7.344-3.283 7.338-7.347l.002-30.739c-.002-4.049-3.291-7.339-7.347-7.339m14.916 38.013c0 1.671-1.356 3.024-3.026 3.024h-1.503v4.212c0 .82-.665 1.484-1.484 1.484-.819 0-1.484-.664-1.484-1.484v-4.212h-2.899v4.212c0 .82-.665 1.484-1.484 1.484-.82 0-1.484-.664-1.484-1.484v-4.212h-1.503c-1.671 0-3.026-1.354-3.026-3.024v-16.318h17.894v16.318zm26.093 0c0 1.671-1.354 3.024-3.024 3.024h-1.505v4.212c0 .82-.664 1.484-1.484 1.484-.819 0-1.484-.664-1.484-1.484v-4.212h-2.899v4.212c0 .82-.665 1.484-1.484 1.484-.82 0-1.484-.664-1.484-1.484v-4.212h-1.504c-1.671 0-3.024-1.354-3.024-3.024v-16.318h17.893v16.318zm-17.893-18.295v-15.327c0-1.671 1.354-3.024 3.024-3.024h11.844c1.671 0 3.024 1.354 3.024 3.024v15.327h-17.893zm-26.093 0v-15.327c0-1.671 1.356-3.024 3.026-3.024h11.842c1.671 0 3.026 1.354 3.026 3.024v15.327h-17.894z"/>
</svg>
